<svg xmlns="http://www.w3.org/2000/svg" width="300" height="300" viewBox="0 0 300 300">
  <g id="Grupo_1" data-name="Grupo 1" transform="translate(-108 -90)">
    <g id="Ret창ngulo_1" data-name="Ret창ngulo 1" transform="translate(108 90)" fill="none" stroke="#4242c2" stroke-linecap="round" stroke-linejoin="round" stroke-width="20">
      <rect width="300" height="300" rx="10" stroke="none"/>
      <rect x="10" y="10" width="280" height="280" fill="none"/>
    </g>
    <path id="Uni찾o_3" data-name="Uni찾o 3" d="M36,160H4a4,4,0,0,1-4-4V4A4,4,0,0,1,4,0H161a4,4,0,0,1,4,4V56a4,4,0,0,1-4,4H129a4,4,0,0,1-4-4V40H40v80h85V104a4,4,0,0,1,4-4h32a4,4,0,0,1,4,4v52a4,4,0,0,1-4,4Z" transform="translate(178 160)" fill="#4242c2"/>
    <circle id="Elipse_1" data-name="Elipse 1" cx="20" cy="20" r="20" transform="translate(138 120)" fill="#4242c2"/>
    <circle id="Elipse_3" data-name="Elipse 3" cx="20" cy="20" r="20" transform="translate(138 320)" fill="#4242c2"/>
    <circle id="Elipse_2" data-name="Elipse 2" cx="20" cy="20" r="20" transform="translate(338 120)" fill="#4242c2"/>
    <circle id="Elipse_4" data-name="Elipse 4" cx="20" cy="20" r="20" transform="translate(338 320)" fill="#4242c2"/>
  </g>
</svg>
